<svg width="56" height="56" viewBox="0 0 56 56" fill="none" xmlns="http://www.w3.org/2000/svg">
<circle cx="28" cy="28" r="22" fill="#C4C4C4" fill-opacity="0.4"/>
<g clip-path="url(#clip0_275_349)">
<path d="M41 41H16V16H41V41Z" fill="#00C3FF"/>
<path d="M41 41H28.5V16H41V41Z" fill="#00C3FF"/>
<path d="M39.5352 39.5352H17.4648V17.4648H39.5352V39.5352Z" fill="#063E8B"/>
<path d="M39.5352 39.5352H28.5V17.4648H39.5352V39.5352Z" fill="#063E8B"/>
<path d="M28.5 37.991C27.9131 37.991 27.3613 37.7624 26.9463 37.3474L19.6526 30.0537C19.2376 29.6387 19.009 29.0869 19.009 28.5C19.009 27.9131 19.2376 27.3613 19.6526 26.9463L26.9463 19.6526C27.3613 19.2376 27.9131 19.009 28.5 19.009C29.0869 19.009 29.6387 19.2376 30.0537 19.6526L37.3474 26.9463C37.7625 27.3613 37.991 27.9131 37.991 28.5C37.991 29.0869 37.7625 29.6387 37.3474 30.0537L30.0537 37.3474C29.6387 37.7624 29.0869 37.991 28.5 37.991ZM28.5 20.4738C28.3044 20.4738 28.1205 20.5501 27.9821 20.6884L20.6884 27.9821C20.5501 28.1204 20.4738 28.3043 20.4738 28.5C20.4738 28.6957 20.5501 28.8795 20.6884 29.0179L27.9821 36.3116C28.1204 36.4499 28.3044 36.5262 28.5 36.5262C28.6957 36.5262 28.8796 36.4499 29.0179 36.3116L36.3116 29.0179C36.45 28.8796 36.5262 28.6957 36.5262 28.5C36.5262 28.3043 36.45 28.1205 36.3116 27.9821L29.0179 20.6884C28.8796 20.5501 28.6957 20.4738 28.5 20.4738Z" fill="#CCEFFF"/>
<path d="M37.3474 26.9463L30.0537 19.6526C29.6387 19.2376 29.0869 19.009 28.5 19.009V20.4738C28.6957 20.4738 28.8795 20.5501 29.0179 20.6884L36.3116 27.9821C36.45 28.1204 36.5262 28.3043 36.5262 28.5C36.5262 28.6957 36.45 28.8795 36.3116 29.0179L29.0179 36.3116C28.8796 36.4499 28.6957 36.5262 28.5 36.5262V37.991C29.0869 37.991 29.6387 37.7624 30.0537 37.3474L37.3474 30.0537C37.7625 29.6387 37.991 29.0869 37.991 28.5C37.991 27.9131 37.7625 27.3613 37.3474 26.9463Z" fill="#CCEFFF"/>
<path d="M31.0888 31.2148C30.1438 31.2148 29.4716 30.7851 29.2372 30.582L29.6279 29.9258C29.8779 30.1029 30.4531 30.4648 31.0654 30.4648C31.4622 30.4648 31.7372 30.2985 31.7372 30.0117C31.7372 29.6597 31.1564 29.5456 30.8388 29.457C30.5732 29.3841 29.3779 29.2161 29.3779 28.3164C29.3779 27.4502 30.1316 26.9648 30.9872 26.9648C31.8854 26.9648 32.3648 27.3295 32.5888 27.5273L32.1669 28.1601C31.9586 28.0039 31.4948 27.707 30.9794 27.707C30.5996 27.707 30.3544 27.8693 30.3544 28.168C30.3544 28.5407 31.008 28.6472 31.1591 28.6836C31.4404 28.7566 32.7451 28.9557 32.7451 29.918C32.7451 31.0553 31.5992 31.2148 31.0888 31.2148Z" fill="#00C3FF"/>
<path d="M24.7764 31.1367V25.5898H27.128C28.2043 25.5898 28.8936 26.5794 28.8936 27.4336C28.8936 28.4403 28.1283 29.2773 27.1671 29.2773H25.8546V31.1367H24.7764ZM25.8546 28.332H27.1046C27.4827 28.332 27.7999 27.9792 27.7999 27.4336C27.7999 26.9648 27.5153 26.5352 27.0577 26.5352H25.8546V28.332Z" fill="#00C3FF"/>
<path d="M28.5 26.2983V28.6039C28.7464 28.2839 28.8937 27.8751 28.8937 27.4336C28.8937 27.0482 28.7529 26.6355 28.5 26.2983Z" fill="#00C3FF"/>
</g>
<path d="M0 28C-5.13745e-07 33.8766 1.84895 39.6042 5.28495 44.3715C8.72096 49.1389 13.5698 52.7043 19.1448 54.5628C24.7197 56.4214 30.7381 56.4787 36.3474 54.7268C41.9567 52.9749 46.8727 49.5025 50.3989 44.8015C53.9251 40.1004 55.8829 34.4091 55.9949 28.5336C56.1069 22.6581 54.3675 16.8963 51.0229 12.0644C47.6784 7.23237 42.8984 3.57516 37.3599 1.61074C31.8214 -0.353678 25.8052 -0.52572 20.1635 1.11899L21.3627 5.23265C26.1411 3.83963 31.2366 3.98535 35.9275 5.64915C40.6184 7.31295 44.667 10.4105 47.4997 14.503C50.3324 18.5956 51.8056 23.4756 51.7108 28.452C51.6159 33.4283 49.9578 38.2487 46.9712 42.2303C43.9845 46.2119 39.8209 49.1529 35.07 50.6367C30.319 52.1206 25.2217 52.072 20.4999 50.4979C15.7781 48.9238 11.6713 45.904 8.76109 41.8661C5.8509 37.8283 4.2849 32.9773 4.2849 28L0 28Z" fill="#3B5999"/>
<defs>
<clipPath id="clip0_275_349">
<rect width="25" height="25" fill="white" transform="translate(16 16)"/>
</clipPath>
</defs>
</svg>
