<svg width="25" height="24" viewBox="0 0 25 24" fill="none" xmlns="http://www.w3.org/2000/svg">
<g clip-path="url(#clip0_275_282)">
<path d="M20.7433 15.38C19.5133 15.38 18.3233 15.18 17.2133 14.82C16.8633 14.7 16.4733 14.79 16.2033 15.06L14.6333 17.03C11.8033 15.68 9.15334 13.13 7.74334 10.2L9.69334 8.54C9.96334 8.26 10.0433 7.87 9.93334 7.52C9.56334 6.41 9.37334 5.22 9.37334 3.99C9.37334 3.45 8.92334 3 8.38334 3H4.92334C4.38334 3 3.73334 3.24 3.73334 3.99C3.73334 13.28 11.4633 21 20.7433 21C21.4533 21 21.7333 20.37 21.7333 19.82V16.37C21.7333 15.83 21.2833 15.38 20.7433 15.38Z" fill="white"/>
</g>
<defs>
<clipPath id="clip0_275_282">
<rect width="24" height="24" fill="white" transform="translate(0.733337)"/>
</clipPath>
</defs>
</svg>
