<svg width="19" height="28" viewBox="0 0 19 28" fill="none" xmlns="http://www.w3.org/2000/svg">
<path d="M17.9912 17.8992C17.392 17.2337 16.4808 17.158 15.7348 17.6904C14.8533 18.3194 13.5634 19.1276 12.5005 19.6539C12.1519 18.618 12.0011 17.2342 11.7203 16.1159L11.744 9.72044C11.744 9.72044 15.6413 9.26196 16.7661 9.11001C17.9645 9.01047 18.1479 8.07148 17.8928 7.41216C17.831 7.25184 16.2653 3.25891 15.9924 2.48728C15.7244 1.73018 15.0026 1.28051 14.0751 1.51261C13.2158 1.72754 12.9573 2.46614 13.2193 3.22412C13.5847 4.28423 14.5576 6.84621 14.5576 6.84621L11.1433 7.25668L5.62293 6.19922C4.21737 4.87 3.31263 3.38796 2.98435 1.24395C2.86372 0.456905 2.30604 -0.094071 1.29748 0.0133936C0.413008 0.107645 -0.103635 0.845363 0.0174919 1.63197C0.512381 4.8678 2.14784 7.60506 4.64799 9.42536V15.7565C2.93195 19.6653 2.91168 23.6992 5.44149 27.2799C5.77076 27.745 6.33239 28 6.90638 28C7.2218 28 7.54019 27.922 7.82645 27.763C8.63379 27.309 8.87704 26.359 8.36831 25.6384C6.9667 23.6556 6.31706 21.2491 7.01811 18.4484C7.13084 17.9979 7.58865 17.6816 8.10677 17.6984H8.10825C8.59622 17.7138 9.01003 18.0194 9.1183 18.4431C9.42631 19.6415 9.57858 20.8091 9.81144 21.538C10.2678 22.9633 11.8632 23.2156 12.8787 22.74C14.9433 21.7732 16.2326 21.0795 17.7203 20.0639C18.4792 19.5464 18.5879 18.5621 17.9912 17.8992Z" fill="#E5E5E5"/>
<path d="M8.87812 6.02366C10.3425 6.02366 11.5296 4.96615 11.5296 3.66164C11.5296 2.35713 10.3425 1.29962 8.87812 1.29962C7.41377 1.29962 6.22668 2.35713 6.22668 3.66164C6.22668 4.96615 7.41377 6.02366 8.87812 6.02366Z" fill="#E5E5E5"/>
</svg>
