<svg width="29" height="28" viewBox="0 0 29 28" fill="none" xmlns="http://www.w3.org/2000/svg">
<path fill-rule="evenodd" clip-rule="evenodd" d="M28.4935 26.3647C28.4935 26.3647 27.9446 26.5374 26.6838 26.1918C25.9031 25.9782 25.0939 25.8622 24.3971 25.7018C23.2385 25.4346 22.8151 25.0246 21.8362 24.407C21.3977 24.1304 21.0452 23.9527 20.9803 24.1209C20.8467 24.4664 20.8318 24.5262 21.1731 24.7365C21.5142 24.9465 22.3895 25.6221 21.6477 26.2822C21.2246 26.6589 20.0771 26.943 19.1695 27.1172C18.8328 27.1816 18.5291 27.2315 18.3077 27.2654C17.9121 27.3256 17.995 27.2976 17.6367 27.4551C17.1005 27.6905 16.0124 28.1306 15.7142 27.9628C15.3137 27.738 14.7352 27.2876 15.106 26.6273C15.4186 26.0707 16.153 25.6311 16.5358 25.5069C16.7461 25.4387 16.8788 25.4729 16.6738 25.112C16.352 24.5452 15.7645 24.7613 15.2372 24.7978C14.5725 24.8441 13.6132 24.7664 13.0416 24.8732C12.4086 24.9916 12.5007 25.0187 11.8341 25.0724C11.3587 25.1107 10.8017 25.2443 10.5891 25.029C10.2035 24.6389 10.1144 23.6634 10.6632 23.5435C11.2121 23.423 12.4603 23.3075 12.7845 23.3482C13.9473 23.494 11.6527 22.5448 10.5802 22.0435C9.85316 21.7036 10.1216 21.5362 10.1436 22.4058C10.1584 22.9931 10.132 23.8575 9.99579 24.5038C9.87824 25.0609 9.75346 25.7467 9.65745 26.2975C9.45758 27.4439 9.75361 27.2235 8.73274 27.4777C8.41378 27.5571 4.41601 28.2856 5.9757 26.7397C6.70254 26.0193 6.92518 26.0193 7.28121 25.8543C7.63709 25.689 8.30485 23.9408 7.93404 23.2501C7.62463 22.6748 7.41861 20.5439 7.3586 19.8521C7.34152 19.6534 7.39153 19.613 7.18089 19.5712C7.11258 19.5576 7.04734 19.5685 7.04396 19.6562C7.03657 19.8434 7.38522 22.44 7.38522 22.6875C7.38522 23.0071 8.24715 25.6196 6.8067 25.824C6.38405 25.8842 5.70905 26.0341 5.30855 26.0117C4.90805 25.989 4.67803 25.9591 4.67064 25.4865C4.66326 25.0134 5.91677 24.856 6.33219 24.2708C6.74746 23.6853 6.39143 22.3348 6.15402 21.7342C5.96046 21.2445 6.12233 19.6151 5.96277 18.8855C5.88553 18.5332 5.55612 18.3519 5.30317 18.0673C4.45662 17.115 2.2224 13.8177 2.62367 12.5497C3.18373 10.7789 3.35882 7.21548 2.26764 5.79599C1.85236 5.25616 1.95607 4.97083 1.67419 4.97083C0.973047 4.97083 -0.64896 3.16639 0.2799 2.01434C0.325905 1.95737 0.701943 1.50828 1.02413 1.15244C1.92929 0.152621 2.78692 1.3962 2.78692 0.858702C2.78692 0.5136 3.55823 0.318399 3.63254 0.0931556C3.66254 0.00193776 4.04104 -0.0128503 4.49247 0.00878675C6.91717 0.125066 6.26434 0.774646 8.09021 1.42142C9.90085 2.06259 10.2704 2.62127 10.8937 4.40811C10.9828 4.66308 11.2795 5.17319 11.1014 5.30831C10.9234 5.44342 9.84054 4.36312 9.79608 3.82267C9.75161 3.28236 9.06923 4.2428 9.08401 4.40811C9.09878 4.57311 8.77997 4.44563 8.77259 4.8133C8.76813 5.03341 8.61473 5.99369 8.55303 6.77075C8.45902 7.95269 8.58965 7.73757 9.36926 8.53487C12.8285 12.074 16.1098 14.3661 19.2627 18.0645C20.0612 19.0014 20.0085 18.8416 20.4596 20.0064L20.8282 20.9584C21.3026 22.1833 21.1972 21.9774 22.2452 22.7608C23.6038 23.777 27.1355 25.828 28.5909 25.4862C29.2823 25.3235 28.9924 26.2886 28.4935 26.3647Z" fill="white"/>
</svg>
