<svg width="36" height="28" viewBox="0 0 36 28" fill="none" xmlns="http://www.w3.org/2000/svg">
<path d="M11.62 0C8.2012 0 6.1208 2 1.05 2C0.4704 2 0 2.448 0 3V23.968C5.8954 24.2593 7.9779 22 11.62 22C13.5723 22 15.4469 23.1807 16.87 24.444V2.44267C15.3818 1.13067 13.5289 0 11.62 0V0ZM12.67 17H4.27C3.6904 17 3.22 16.552 3.22 16C3.22 15.448 3.6904 15 4.27 15H12.67C13.2496 15 13.72 15.448 13.72 16C13.72 16.552 13.2496 17 12.67 17ZM12.67 13H4.27C3.6904 13 3.22 12.552 3.22 12C3.22 11.448 3.6904 11 4.27 11H12.67C13.2496 11 13.72 11.448 13.72 12C13.72 12.552 13.2496 13 12.67 13ZM12.67 9H4.27C3.6904 9 3.22 8.552 3.22 8C3.22 7.448 3.6904 7 4.27 7H12.67C13.2496 7 13.72 7.448 13.72 8C13.72 8.552 13.2496 9 12.67 9ZM11.62 24C8.5862 24 6.1313 26.2673 0 25.9793V27C0 27.552 0.4704 28 1.05 28H16.87V27.3453C15.9061 26.218 13.601 24 11.62 24ZM24.22 24C22.2313 24 19.9304 26.2173 18.97 27.3447V28H34.79C35.3696 28 35.84 27.552 35.84 27V25.976C29.6892 26.263 27.2562 24 24.22 24ZM34.79 2C29.7185 2 27.6402 0 24.22 0C22.3118 0 20.4596 1.12933 18.97 2.44267V24.444C20.3934 23.1806 22.2679 22 24.22 22C27.8725 22 29.9845 24.2754 35.84 23.9747V3C35.84 2.448 35.3696 2 34.79 2ZM31.57 17H23.17C22.5904 17 22.12 16.552 22.12 16C22.12 15.448 22.5904 15 23.17 15H31.57C32.1496 15 32.62 15.448 32.62 16C32.62 16.552 32.1496 17 31.57 17ZM31.57 13H23.17C22.5904 13 22.12 12.552 22.12 12C22.12 11.448 22.5904 11 23.17 11H31.57C32.1496 11 32.62 11.448 32.62 12C32.62 12.552 32.1496 13 31.57 13ZM31.57 9H23.17C22.5904 9 22.12 8.552 22.12 8C22.12 7.448 22.5904 7 23.17 7H31.57C32.1496 7 32.62 7.448 32.62 8C32.62 8.552 32.1496 9 31.57 9Z" fill="#E5E5E5"/>
</svg>
