<svg width="18" height="28" viewBox="0 0 18 28" fill="none" xmlns="http://www.w3.org/2000/svg">
<path d="M10.2712 5.19269C11.7333 5.19269 12.9186 4.03036 12.9186 2.59607C12.9186 1.16233 11.7333 0 10.2712 0C8.80864 0 7.62336 1.16233 7.62336 2.59613C7.62336 4.03036 8.80864 5.19269 10.2712 5.19269Z" fill="white"/>
<path d="M17.4688 12.9485L14.4363 11.385L13.1581 8.80995C12.5137 7.5109 11.2789 6.58898 9.83001 6.325L8.51502 6.08514C7.85368 5.96499 7.17042 6.05156 6.56167 6.33353L2.73214 8.10683C2.30675 8.30365 1.97069 8.64621 1.78583 9.06938L0.0827533 12.969C-0.0254908 13.2169 -0.0275542 13.4969 0.0766189 13.7457C0.180792 13.9951 0.383004 14.1934 0.636856 14.2956L0.675112 14.3106C1.1827 14.5144 1.76436 14.2896 1.99423 13.8013L3.55738 10.4815L6.03166 9.69731L3.57991 20.3827L1.19196 26.2214C1.05968 26.5449 1.07452 26.908 1.23184 27.22C1.3891 27.5325 1.67451 27.7644 2.0167 27.858L2.11987 27.886C2.66884 28.0363 3.25155 27.8034 3.53747 27.3196L6.36771 22.5256L8.05394 19.2444L11.1313 22.5747L13.4044 27.2972C13.6607 27.8295 14.2668 28.1084 14.848 27.9607L14.8735 27.9537C15.2111 27.8681 15.4961 27.6482 15.6615 27.3472C15.8255 27.0462 15.855 26.6912 15.7417 26.3681L14.0693 21.6142C13.8344 20.9456 13.4861 20.3211 13.0392 19.7663L10.3234 16.2447L11.3198 11.1632L12.6057 12.7652C12.7645 12.9635 12.9703 13.1217 13.2047 13.226L16.5874 14.7237C16.832 14.832 17.1109 14.8385 17.3605 14.7418C17.6103 14.6451 17.8095 14.4534 17.9126 14.2104L17.9233 14.1849C18.1214 13.7197 17.9238 13.1834 17.4688 12.9485Z" fill="white"/>
</svg>
