<svg width="25" height="24" viewBox="0 0 25 24" fill="none" xmlns="http://www.w3.org/2000/svg">
<g clip-path="url(#clip0_275_288)">
<path d="M20.8521 3.88125C18.6865 1.71094 15.799 0.515625 12.7333 0.515625C9.66771 0.515625 6.78021 1.71094 4.61459 3.88125C2.44896 6.05156 1.24896 8.93437 1.24896 12C1.24896 15.0656 2.44428 17.9531 4.61459 20.1188C6.7849 22.2844 9.66771 23.4844 12.7333 23.4844C15.799 23.4844 18.6865 22.2891 20.8521 20.1188C23.0177 17.9484 24.2177 15.0656 24.2177 12C24.2177 8.93437 23.0224 6.04688 20.8521 3.88125ZM23.1771 11.4844H18.724C18.6818 9.7125 18.4333 8.00625 17.9974 6.49219C18.8458 6.05625 19.638 5.50781 20.3646 4.86094C22.0052 6.61406 23.0505 8.92969 23.1771 11.4844ZM13.249 12.5156H17.6974C17.6599 14.1469 17.4349 15.7078 17.0458 17.1047C15.8458 16.6219 14.5661 16.3406 13.249 16.2797V12.5156ZM19.624 4.14375C19.024 4.67344 18.3677 5.12344 17.674 5.49844C17.4958 5.00156 17.2943 4.53281 17.0693 4.09219C16.624 3.21094 16.1177 2.48906 15.5599 1.93594C17.0833 2.3625 18.4662 3.12656 19.624 4.14375ZM13.249 1.70625C14.3224 1.94531 15.3349 2.93437 16.1505 4.54688C16.3708 4.98281 16.5677 5.44687 16.7411 5.93906C15.6396 6.39375 14.463 6.66094 13.249 6.72187V1.70625ZM17.0505 6.92813C17.4349 8.31563 17.6552 9.86719 17.6927 11.4891H13.249V7.75781C14.5708 7.69688 15.8505 7.41094 17.0505 6.92813ZM12.2177 11.4844H7.76928C7.80678 9.8625 8.02709 8.31094 8.41146 6.92344C9.61146 7.41094 10.8958 7.69219 12.213 7.74844V11.4844H12.2177ZM12.2224 1.70625V6.72187C11.0083 6.66094 9.82709 6.39375 8.73021 5.93906C8.90365 5.44687 9.10052 4.98281 9.32084 4.54688C10.1365 2.93437 11.149 1.94531 12.2224 1.70625ZM9.91146 1.93594C9.35365 2.48906 8.8474 3.21563 8.40209 4.09219C8.18178 4.53281 7.98021 5.00156 7.7974 5.49844C7.10365 5.12344 6.45209 4.67344 5.8474 4.14375C7.00521 3.12656 8.38803 2.3625 9.91146 1.93594ZM5.10678 4.86094C5.83334 5.50781 6.62552 6.05156 7.47396 6.49219C7.03802 8.01094 6.7849 9.7125 6.7474 11.4844H2.29427C2.42084 8.92969 3.46615 6.61406 5.10678 4.86094ZM2.29427 12.5156H6.7474C6.78959 14.3016 7.04271 16.0125 7.48334 17.5359C6.63959 17.9719 5.8474 18.5109 5.12552 19.1578C3.47084 17.4 2.42084 15.0797 2.29427 12.5156ZM5.86615 19.875C6.46615 19.35 7.11771 18.9 7.80677 18.5297C7.9849 19.0125 8.18178 19.4766 8.40209 19.9078C8.8474 20.7891 9.35365 21.5109 9.91146 22.0687C8.3974 21.6422 7.01927 20.8828 5.86615 19.875ZM12.2224 22.2938C11.149 22.0547 10.1365 21.0656 9.32084 19.4531C9.10521 19.0266 8.91302 18.5719 8.73959 18.0891C9.83646 17.6344 11.013 17.3672 12.2224 17.3109V22.2938ZM8.42553 17.1047C8.03646 15.7078 7.81146 14.1469 7.77396 12.5156H12.2224V16.2797C10.9052 16.3359 9.62553 16.6172 8.42553 17.1047ZM13.2537 22.2938V17.3109C14.463 17.3719 15.6396 17.6344 16.7365 18.0891C16.563 18.5719 16.3708 19.0266 16.1552 19.4531C15.3396 21.0656 14.3271 22.0547 13.2537 22.2938ZM15.5646 22.0641C16.1224 21.5109 16.6287 20.7844 17.074 19.9031C17.2943 19.4719 17.4911 19.0078 17.6693 18.525C18.3583 18.8953 19.0099 19.3453 19.6099 19.8703C18.4568 20.8828 17.0786 21.6422 15.5646 22.0641ZM20.3552 19.1578C19.6333 18.5156 18.8411 17.9719 17.9974 17.5359C18.438 16.0125 18.6912 14.2969 18.7333 12.5156H23.1865C23.0552 15.0797 22.0052 17.4 20.3552 19.1578Z" fill="white"/>
</g>
<defs>
<clipPath id="clip0_275_288">
<rect width="24" height="24" fill="white" transform="translate(0.733337)"/>
</clipPath>
</defs>
</svg>
